<svg xmlns="http://www.w3.org/2000/svg" version="1.1" xmlns:xlink="http://www.w3.org/1999/xlink" width="512" height="512" x="0" y="0" viewBox="0 0 64 64" style="enable-background:new 0 0 512 512" xml:space="preserve" class=""><g><path d="M62.57 12.13H41.75c-.62-1.97-2.44-3.42-4.62-3.42H26.87c-2.17 0-4 1.45-4.61 3.42H1.43c-.79 0-1.43.64-1.43 1.43v40.29c0 .79.64 1.44 1.43 1.44h61.14c.79 0 1.43-.65 1.43-1.44V13.56c0-.79-.64-1.43-1.43-1.43zm-37.69 1.43a2 2 0 0 1 1.99-1.98h10.26c1.1 0 1.99.89 1.99 1.99s-.89 1.99-1.99 1.99H26.87c-1.09 0-1.99-.9-1.99-2zm36.25 38.86H2.86V14.99h19.4c.61 1.98 2.44 3.43 4.61 3.43h10.26c2.18 0 4-1.45 4.62-3.43h19.38z" fill="#000000" opacity="1" data-original="#000000"></path><path d="M31.66 37.33c-1.84-2.65-5.05-3.05-6.11-3.18-.5-.06-.88-.21-1.16-.43 1.89-2 3.04-4.98 3.04-7.78 0-4.89-3.48-8.57-8.09-8.57-4.62 0-8.09 3.68-8.09 8.57 0 2.8 1.14 5.78 3.04 7.78-.29.22-.67.37-1.17.43-1.06.13-4.27.53-6.11 3.18-1.52 2.2-1.78 5.44-.76 9.65.11.47.45.85.91 1.01 3.86 1.38 7.83 2.07 11.9 2.07 4.06 0 8.2-.68 12.42-2.06.47-.15.83-.54.94-1.02 1.02-4.2.76-7.45-.76-9.65zm-17.55-11.4c0-3.36 2.15-5.71 5.23-5.71 3.07 0 5.22 2.35 5.22 5.71 0 3.73-2.54 7.27-5.22 7.27-2.69.01-5.23-3.53-5.23-7.27zm15.7 19.58c-7.27 2.22-14.31 2.23-20.95.03-.62-2.99-.45-5.2.51-6.58.77-1.11 2.03-1.72 4.1-1.97 1.33-.16 2.41-.71 3.15-1.55.84.39 1.75.62 2.72.62s1.87-.23 2.71-.62c.74.84 1.83 1.39 3.15 1.55 2.07.25 3.34.86 4.1 1.97.96 1.37 1.13 3.58.51 6.55zM58.37 21.4c0 .79-.64 1.43-1.43 1.43H36.62a1.43 1.43 0 1 1 0-2.86h20.32c.79 0 1.43.63 1.43 1.43zM58.37 29.6c0 .79-.64 1.43-1.43 1.43H36.62a1.43 1.43 0 1 1 0-2.86h20.32c.79 0 1.43.65 1.43 1.43zM58.37 37.81c0 .79-.64 1.44-1.43 1.44H36.62c-.79 0-1.43-.65-1.43-1.44s.64-1.43 1.43-1.43h20.32c.79 0 1.43.65 1.43 1.43zM58.37 46.03c0 .79-.64 1.43-1.43 1.43H36.62c-.79 0-1.43-.64-1.43-1.43 0-.8.64-1.44 1.43-1.44h20.32c.79.01 1.43.65 1.43 1.44z" fill="#000000" opacity="1" data-original="#000000"></path></g></svg>