<svg xmlns="http://www.w3.org/2000/svg" version="1.1" xmlns:xlink="http://www.w3.org/1999/xlink" width="512" height="512" x="0" y="0" viewBox="0 0 24 24" style="enable-background:new 0 0 512 512" xml:space="preserve" class=""><g><path d="M12 19H7c-1.1 0-2-.9-2-2V7c0-1.1.9-2 2-2h5c.55 0 1-.45 1-1s-.45-1-1-1H7C4.79 3 3 4.79 3 7v10c0 2.21 1.79 4 4 4h5c.55 0 1-.45 1-1s-.45-1-1-1z" fill="#000000" opacity="1" data-original="#000000" class=""></path><path d="m20.71 11.29-3-3A.996.996 0 1 0 16.3 9.7l1.29 1.29H9c-.55 0-1 .45-1 1s.45 1 1 1h8.59l-1.29 1.29a.996.996 0 0 0 .71 1.7c.26 0 .51-.1.71-.29l3-3a.996.996 0 0 0 0-1.41z" fill="#000000" opacity="1" data-original="#000000" class=""></path></g></svg>