<?xml version="1.0" encoding="utf-8"?>
<!-- Generator: Adobe Illustrator 24.2.3, SVG Export Plug-In . SVG Version: 6.00 Build 0)  -->
<svg version="1.1" id="Layer_2_1_" xmlns="http://www.w3.org/2000/svg" xmlns:xlink="http://www.w3.org/1999/xlink" x="0px" y="0px"
	 viewBox="0 0 645.9 135.8" style="enable-background:new 0 0 645.9 135.8;" xml:space="preserve">
<style type="text/css">
	.st0{fill:#F0AE8D;}
	.st1{fill:#F09264;}
	.st2{fill:#F07E46;}
	.st3{fill:#595959;}
</style>
<path class="st0" d="M137.8,67.9c0,19.9-8.6,37.7-22.2,50l0,0c-2.8,1-5.6,1.2-8.6,0.5c-1.6-0.4-15.5-4.5-17.6-5
	c-4.1-1-6.3-2.2-11,0.5c-8.2,5.3-11.1,7.5-21.8,15.2c-1.9,1.3-3.6,2.4-5.3,3.6c-5.4-1.6-10.5-3.8-15.2-6.6
	c9.2-4.2,20.1-12.3,27.1-18.1c10.9-9,19.9-17.8,30.5-29.8c7-7.6,15.9-11.1,25.7-13.4c7.9-1.8,14.5-2.7,18.2-3
	C137.7,63.8,137.8,65.8,137.8,67.9z"/>
<path class="st1" d="M136,52.4c-3.6,0.5-7.6,1-10.8,1.5c-10.8,1.5-21.3,4.1-30.3,10.4c-4.5,3.2-8.4,7.4-12.3,11.4
	c-14.4,14.5-28.6,27.7-46,38.6c-3.9,2.4-7.5,4.2-9.6,5.2C12.2,107.1,2.9,88.6,2.9,67.9c0-0.9,0-1.8,0.1-2.6c3,0.5,6.5,1.2,8.8,1.6
	c26.1,5,49.9-2.6,69.8-19.7c4.7-4,9.7-7.7,14.1-12c9-8.8,18.8-13.3,22.5-14.8C126.8,29,133.1,40,136,52.4z"/>
<path class="st2" d="M111.7,14.5c-1.4,0.6-2.8,1.3-4.2,1.9c-10.1,4.6-18.3,12-26.4,19.3c-9.2,8.2-19.1,15.1-30.9,19
	c-15,5-25.8,4.7-46.1,0.3c6-31.1,33.4-54.6,66.2-54.6C85.9,0.4,100.3,5.7,111.7,14.5z"/>
<g>
	<polygon class="st2" points="194.1,46.9 224.3,14.7 209.3,14.7 185.2,39.8 185.2,56.5 185.3,56.5 210.6,86.6 226.2,86.6 	"/>
	
		<rect x="166.8" y="14.8" transform="matrix(1 -1.047197e-03 1.047197e-03 1 -5.300652e-02 0.1817)" class="st2" width="13.4" height="71.9"/>
	<path class="st2" d="M275.7,63c0.4-0.1,0.7-0.3,1-0.4c4.5-2,8.1-4.9,10.5-8.7s3.7-8.3,3.7-13.6s-1.2-9.8-3.7-13.7s-6-6.8-10.5-8.8
		s-10-3.1-16.4-3.1l-29.6,0l0.1,71.9h13.4L244.1,26l15.6,0c5.9,0,10.3,1.2,13.3,3.7c3,2.5,4.5,6,4.5,10.6c0,4.5-1.5,8-4.5,10.6
		c-3,2.5-7.4,3.8-13.3,3.8h-10.5l0,11h11.1c1,0,1.9,0,2.8-0.1l14.7,21h14.4L275.7,63L275.7,63z"/>
	<path class="st2" d="M482.1,62.8c0.4-0.1,0.7-0.3,1-0.4c4.5-2,8.1-4.9,10.5-8.7s3.7-8.3,3.7-13.6c0-5.3-1.2-9.8-3.7-13.7
		s-6-6.8-10.5-8.8s-10-3.1-16.4-3.1l-29.6,0l0.1,71.9h13.4l-0.1-60.6l15.6,0c5.9,0,10.3,1.2,13.3,3.7c3,2.5,4.5,6,4.5,10.6
		c0,4.5-1.5,8-4.5,10.6c-3,2.5-7.4,3.8-13.3,3.8h-11.8l0,11h12.4c1,0,1.9,0,2.8-0.1l14.7,21h14.4L482.1,62.8L482.1,62.8z"/>
	<polygon class="st2" points="351.5,75.3 351.5,86.5 297.6,86.5 297.5,14.6 350,14.6 350,25.8 310.9,25.8 310.9,44.5 345.6,44.5 
		345.6,55.5 310.9,55.5 310.9,75.3 	"/>
	<path class="st2" d="M382.6,69.8l30.5,0l7.2,16.6h14l-32.5-71.9h-13.1l-32.3,71.9H370l7.1-16.7l4.5-10.5L395,27.8l13.5,31.5
		l-21.5,0L382.6,69.8L382.6,69.8z"/>
	<path class="st2" d="M579,64.7c0,4-1,7.8-3.1,11.2s-5.2,6.2-9.4,8.3s-9.5,3.1-16,3.2c-5.1,0-10-0.7-14.8-2.2
		c-4.8-1.5-8.9-3.5-12.2-6.1l5.7-10.4c2.6,2.1,5.8,3.8,9.5,5.1c3.7,1.3,7.6,1.9,11.6,1.9c4.8,0,8.5-1,11.2-2.9c2.7-2,4-4.6,4-8
		s-1.2-5.9-3.7-7.8c-2.5-1.9-6.4-2.9-11.9-2.9h-6.6V45l16.3-19.4l-32.6,0V14.4l49-0.1v8.9L558.6,44c5.8,0.7,10.4,2.6,13.8,5.5
		C576.8,53.5,579,58.5,579,64.7L579,64.7z"/>
	<path class="st2" d="M641,31.3c-3.3-5.3-7.9-9.5-13.8-12.5c-5.9-3-12.7-4.5-20.5-4.5l-22.8,0v11.3h4.7l17.6-0.1
		c5.4,0,10.1,1,14,3.1s7,4.9,9.2,8.6c2.2,3.7,3.2,8,3.3,13s-1.1,9.3-3.2,12.9c-2.2,3.7-5.2,6.6-9.1,8.6c-3.9,2.1-8.6,3.1-14,3.1
		l-22.2,0v11.3l22.8,0c7.8,0,14.7-1.5,20.5-4.5c5.9-3,10.5-7.2,13.8-12.6s4.9-11.7,4.9-18.8C645.9,43,644.3,36.7,641,31.3L641,31.3z
		"/>
</g>
<g>
	<polygon class="st3" points="178.4,119.4 166.8,119.4 166.7,102 169.7,102 169.7,116.7 178.4,116.7 	"/>
	<g>
		<polygon class="st3" points="190.3,96.6 185.6,100.4 182.6,100.4 186.4,96.6 		"/>
		<polygon class="st3" points="185.6,119.4 182.7,119.4 182.6,102 185.6,102 		"/>
	</g>
	<path class="st3" d="M207,106.2c-0.8-1.3-1.8-2.3-3.2-3.1c-1.3-0.7-2.9-1.1-4.7-1.1H192l0,17.4h7.1c1.8,0,3.3-0.4,4.7-1.1
		c1.4-0.7,2.4-1.8,3.2-3.1c0.8-1.3,1.1-2.8,1.1-4.5S207.7,107.4,207,106.2L207,106.2z M205.2,110.7c0,1.2-0.3,2.2-0.8,3.1
		c-0.5,0.9-1.2,1.6-2.1,2.1c-0.9,0.5-2,0.8-3.3,0.8h-4v-11.9h4h0c1.3,0,2.4,0.3,3.3,0.7s1.6,1.2,2.1,2.1
		C204.9,108.4,205.2,109.5,205.2,110.7L205.2,110.7z"/>
	<polygon class="st3" points="225.6,116.6 225.6,119.3 213.3,119.4 213.2,102 225.2,102 225.2,104.7 216.2,104.7 216.2,109.2 
		224.2,109.2 224.2,111.9 216.2,111.9 216.2,116.6 	"/>
	<path class="st3" d="M241.1,113.6C241.1,113.6,241.2,113.5,241.1,113.6c1.1-0.5,1.9-1.2,2.5-2.2c0.6-0.9,0.9-2,0.9-3.3
		c0-1.3-0.3-2.4-0.9-3.3s-1.4-1.7-2.4-2.1c-1-0.5-2.3-0.7-3.7-0.7h-6.6l0,17.4h2.9v-5.1h3.6c0.3,0,0.6,0,0.9,0l3.4,5.1h3.3
		L241.1,113.6L241.1,113.6z M237.4,111.6h-3.6l0-6.8h3.6c1.4,0,2.4,0.3,3.1,0.9s1,1.4,1,2.5s-0.3,1.9-1,2.5
		C239.8,111.3,238.8,111.6,237.4,111.6L237.4,111.6z"/>
	<polygon class="st3" points="262.1,116.6 262.1,119.3 249.8,119.3 249.8,101.9 261.8,101.9 261.8,104.7 252.8,104.7 252.8,109.2 
		260.8,109.2 260.8,111.8 252.8,111.8 252.8,116.6 	"/>
	<path class="st3" d="M279,114.4c0,0.9-0.2,1.8-0.7,2.5c-0.5,0.8-1.2,1.4-2.2,1.9c-1,0.4-2.2,0.7-3.6,0.7h0c-1.3,0-2.5-0.2-3.6-0.6
		c-1.1-0.4-2.1-0.9-2.8-1.6l-0.2-0.2l1.1-2.5l0.4,0.3c0.6,0.5,1.3,1,2.2,1.3c0.9,0.3,1.9,0.5,2.8,0.5c0.9,0,1.6-0.1,2.1-0.3
		c0.5-0.2,0.9-0.5,1.1-0.8c0.2-0.3,0.4-0.7,0.4-1.1c0-0.5-0.1-0.8-0.4-1.1c-0.3-0.3-0.8-0.6-1.3-0.8c-0.6-0.2-1.2-0.4-1.9-0.5
		c-0.7-0.2-1.4-0.3-2.1-0.6c-0.7-0.2-1.4-0.5-2-0.8c-0.6-0.4-1.1-0.8-1.5-1.5c-0.4-0.6-0.6-1.4-0.6-2.4s0.2-1.8,0.7-2.5
		c0.5-0.8,1.2-1.4,2.1-1.9c1-0.4,2.2-0.7,3.6-0.7h0c1,0,1.9,0.1,2.8,0.4c1,0.3,1.8,0.7,2.5,1.1l0.2,0.2l-1,2.6l-0.4-0.2
		c-0.7-0.4-1.4-0.8-2.1-1c-0.7-0.2-1.4-0.3-2.1-0.3c-0.9,0-1.5,0.1-2.1,0.3c-0.5,0.2-0.9,0.5-1.1,0.8c-0.2,0.3-0.4,0.7-0.4,1.2
		c0,0.5,0.1,0.9,0.4,1.2c0.3,0.3,0.8,0.6,1.3,0.8c0.5,0.2,1.2,0.4,1.9,0.6c0.7,0.2,1.4,0.3,2.1,0.6c0.7,0.2,1.4,0.5,2,0.8
		c0.6,0.3,1.1,0.8,1.5,1.4C278.8,112.7,279,113.5,279,114.4L279,114.4z"/>
	<polygon class="st3" points="304.7,116.5 304.7,119.3 292.4,119.3 292.4,101.9 304.4,101.9 304.4,104.6 295.4,104.6 295.4,109.1 
		303.4,109.1 303.4,111.8 295.4,111.8 295.4,116.5 	"/>
	<polygon class="st3" points="322.1,119.3 313,107.4 313,119.3 310.1,119.3 310,101.9 312.4,101.9 321.6,113.7 321.5,101.9 
		324.5,101.9 324.5,119.2 	"/>
	<polygon class="st3" points="342.4,104.6 342.4,109.8 350.4,109.8 350.4,112.5 342.4,112.5 342.4,119.2 339.4,119.2 339.4,101.8 
		351.4,101.8 351.4,104.6 	"/>
	<path class="st3" d="M363.1,101.8h-2.7l-7.5,17.4h3.1l1.8-4.2h8.1l1.8,4.2h3.1C370.7,119.2,363.1,101.8,363.1,101.8z M358.8,112.5
		l3-7l3,7H358.8L358.8,112.5z"/>
	<path class="st3" d="M388.3,111.8c-0.5-0.7-1.1-1.2-1.8-1.6c0,0-0.1,0-0.1-0.1c0.4-0.3,0.8-0.7,1.1-1.2c0.4-0.7,0.6-1.5,0.6-2.5
		c0-1.4-0.5-2.6-1.6-3.4c-1-0.8-2.5-1.2-4.5-1.2h-7.5l0,17.4h8c2.1,0,3.7-0.4,4.8-1.3c1.1-0.9,1.7-2.1,1.7-3.6
		C389,113.3,388.8,112.4,388.3,111.8L388.3,111.8z M377.5,116.6v-4.9l4.9,0h0c1.2,0,2.1,0.2,2.7,0.6c0.6,0.4,0.9,1,0.9,1.8
		s-0.3,1.4-0.9,1.8c-0.6,0.4-1.5,0.6-2.7,0.6L377.5,116.6L377.5,116.6z M377.5,104.4h4.4c1.1,0,1.9,0.2,2.5,0.6
		c0.5,0.4,0.8,0.9,0.8,1.7s-0.3,1.3-0.8,1.7c-0.6,0.4-1.4,0.6-2.5,0.6h-4.4V104.4z"/>
	<path class="st3" d="M404.4,113.4C404.4,113.4,404.5,113.4,404.4,113.4c1.1-0.5,1.9-1.2,2.5-2.2c0.6-0.9,0.9-2,0.9-3.3
		s-0.3-2.4-0.9-3.3c-0.6-0.9-1.4-1.7-2.4-2.1c-1-0.5-2.3-0.7-3.7-0.7h-6.6v17.4h3v-5.1h3.6c0.3,0,0.6,0,0.9,0l3.5,5.1h3.3
		L404.4,113.4L404.4,113.4z M400.7,111.4h-3.6v-6.8l3.5,0h0c1.4,0,2.4,0.3,3.1,0.9c0.7,0.6,1,1.4,1,2.5s-0.3,1.9-1,2.5
		C403.1,111.1,402.1,111.4,400.7,111.4L400.7,111.4z"/>
	<polygon class="st3" points="416.1,119.2 413.1,119.2 413.1,101.8 416.1,101.8 	"/>
	<path class="st3" d="M436.6,116.3l-0.2,0.2c-0.8,0.9-1.7,1.6-2.8,2c-1.1,0.5-2.3,0.7-3.6,0.7h0c-1.3,0-2.4-0.2-3.5-0.7
		c-1.1-0.4-2-1.1-2.8-1.9c-0.8-0.8-1.4-1.7-1.9-2.8c-0.4-1.1-0.7-2.3-0.7-3.5s0.2-2.5,0.7-3.5c0.4-1.1,1.1-2,1.9-2.8
		c0.8-0.8,1.7-1.4,2.8-1.9c1.1-0.4,2.2-0.7,3.5-0.7h0c1.3,0,2.5,0.2,3.5,0.7c1.1,0.5,2,1.1,2.8,2l0.2,0.2l-1.9,2l-0.2-0.3
		c-0.6-0.6-1.2-1.1-2-1.4c-0.7-0.3-1.5-0.5-2.3-0.5h0c-0.9,0-1.6,0.2-2.4,0.5c-0.7,0.3-1.4,0.7-1.9,1.3s-0.9,1.2-1.2,1.9
		c-0.3,0.8-0.5,1.6-0.5,2.4s0.2,1.7,0.5,2.4c0.3,0.7,0.7,1.4,1.3,1.9c0.5,0.5,1.2,1,1.9,1.3c0.7,0.3,1.5,0.4,2.4,0.4h0
		c0.8,0,1.6-0.2,2.3-0.5c0.7-0.3,1.4-0.8,1.9-1.4l0.2-0.3L436.6,116.3L436.6,116.3z"/>
	<path class="st3" d="M448.7,101.9l-0.1-0.2h-2.7l-7.5,17.4h3.1l1.8-4.2h8.1l1.8,4.2h3.1L448.7,101.9z M444.3,112.4l3-7l3,7
		L444.3,112.4L444.3,112.4z"/>
	<path class="st3" d="M473.9,116.3l-0.2,0.2c-0.8,0.9-1.7,1.6-2.8,2s-2.3,0.7-3.6,0.7h0c-1.3,0-2.4-0.2-3.5-0.7
		c-1.1-0.4-2-1.1-2.8-1.9c-0.8-0.8-1.4-1.7-1.9-2.8c-0.5-1.1-0.7-2.3-0.7-3.5s0.2-2.5,0.7-3.5c0.5-1.1,1.1-2,1.9-2.8
		c0.8-0.8,1.7-1.4,2.8-1.9s2.2-0.7,3.5-0.7s2.5,0.2,3.5,0.7c1.1,0.5,2,1.1,2.8,2l0.2,0.2l-2,2l-0.2-0.3c-0.6-0.6-1.2-1.1-1.9-1.4
		c-0.7-0.3-1.5-0.5-2.3-0.5s-1.7,0.2-2.4,0.5c-0.7,0.3-1.4,0.7-1.9,1.3c-0.5,0.5-1,1.2-1.3,1.9c-0.3,0.8-0.4,1.6-0.4,2.5
		s0.1,1.7,0.5,2.4c0.3,0.7,0.7,1.4,1.3,1.9c0.5,0.5,1.2,1,1.9,1.3c1.4,0.6,3.2,0.6,4.7,0c0.7-0.3,1.4-0.8,2-1.4l0.2-0.3L473.9,116.3
		L473.9,116.3z"/>
	<polygon class="st3" points="481.6,119.1 478.7,119.1 478.6,101.7 481.6,101.7 	"/>
	<g>
		<path class="st3" d="M503.8,106.8c-0.4-1.1-1.1-2-1.9-2.8c-0.8-0.8-1.7-1.4-2.8-1.9c-1.1-0.4-2.2-0.7-3.5-0.7h0
			c-1.3,0-2.5,0.2-3.5,0.7c-1.1,0.4-2,1.1-2.8,1.9c-0.8,0.8-1.4,1.8-1.9,2.8c-0.4,1.1-0.7,2.2-0.7,3.5c0,1.3,0.2,2.4,0.7,3.5
			c0.4,1.1,1.1,2,1.9,2.8c0.8,0.8,1.7,1.4,2.8,1.9c1.1,0.4,2.3,0.7,3.5,0.7s2.4-0.2,3.5-0.7c1.1-0.4,2-1.1,2.8-1.9
			c0.8-0.8,1.4-1.8,1.9-2.8c0.4-1.1,0.6-2.3,0.6-3.5S504.2,107.9,503.8,106.8L503.8,106.8z M495.6,104.3L495.6,104.3
			c0.9,0,1.6,0.2,2.3,0.4c0.7,0.3,1.3,0.7,1.9,1.3c0.5,0.5,0.9,1.2,1.3,1.9c0.3,0.7,0.4,1.6,0.4,2.4c0,0.9-0.1,1.7-0.4,2.4
			c-0.3,0.7-0.7,1.4-1.2,1.9c-0.5,0.6-1.2,1-1.9,1.3c-1.4,0.6-3.3,0.6-4.7,0c-0.7-0.3-1.3-0.7-1.9-1.3c-0.5-0.5-1-1.2-1.3-1.9
			c-0.3-0.7-0.5-1.6-0.5-2.4s0.1-1.7,0.4-2.4c0.3-0.7,0.7-1.4,1.3-1.9c0.5-0.6,1.2-1,1.9-1.3C494,104.4,494.8,104.3,495.6,104.3
			L495.6,104.3z"/>
		<polygon class="st3" points="500.7,96.1 496.1,99.8 493.1,99.8 496.9,96.1 		"/>
	</g>
	<polygon class="st3" points="521.7,119 512.5,107.2 512.5,119.1 509.6,119.1 509.6,101.7 511.9,101.7 521.1,113.5 521.1,101.7 
		524,101.7 524,119 	"/>
	<path class="st3" d="M553.9,105.8c-0.8-1.3-1.8-2.3-3.2-3.1c-1.3-0.7-2.9-1.1-4.7-1.1h-7.1V119l7.1,0c1.8,0,3.3-0.4,4.7-1.1
		c1.3-0.7,2.4-1.8,3.2-3.1c0.8-1.3,1.1-2.8,1.1-4.5S554.6,107.1,553.9,105.8L553.9,105.8z M545.9,104.4L545.9,104.4
		c1.3,0,2.4,0.3,3.3,0.7c0.9,0.5,1.6,1.2,2.1,2.1c0.5,0.9,0.8,1.9,0.8,3.1s-0.3,2.2-0.8,3.1c-0.5,0.9-1.2,1.6-2.1,2.1
		c-0.9,0.5-2,0.8-3.3,0.8h-4v-11.9L545.9,104.4L545.9,104.4z"/>
	<polygon class="st3" points="563.1,119 560.2,119 560.1,101.6 563.1,101.6 	"/>
	<path class="st3" d="M583.5,116.6v0.3l-0.2,0.2c-0.8,0.7-1.7,1.2-2.8,1.6c-1.1,0.4-2.2,0.6-3.4,0.6h0c-1.3,0-2.5-0.2-3.5-0.7
		s-2-1.1-2.8-1.9c-0.8-0.8-1.4-1.7-1.9-2.8c-0.4-1.1-0.7-2.3-0.7-3.5s0.2-2.5,0.7-3.5c0.4-1.1,1.1-2,1.9-2.8
		c0.8-0.8,1.8-1.4,2.8-1.9c1.1-0.4,2.2-0.7,3.6-0.7c1.3,0,2.5,0.2,3.6,0.7c1.1,0.4,2,1.1,2.8,2l0.2,0.2l-1.9,1.9l-0.2-0.2
		c-0.6-0.6-1.3-1.1-2-1.4c-1.5-0.6-3.3-0.6-4.8,0c-0.7,0.3-1.4,0.7-1.9,1.3c-0.5,0.5-1,1.2-1.3,1.9c-0.3,0.7-0.5,1.6-0.5,2.4
		s0.2,1.7,0.5,2.4c0.3,0.7,0.7,1.4,1.3,1.9c0.5,0.5,1.2,1,1.9,1.3c0.7,0.3,1.5,0.4,2.4,0.4h0c0.8,0,1.6-0.1,2.3-0.4
		c0.4-0.1,0.7-0.3,1.1-0.5v-5.6h2.8L583.5,116.6L583.5,116.6z"/>
	<rect x="589.5" y="101.6" class="st3" width="3" height="17.4"/>
	<polygon class="st3" points="610.5,104.3 605,104.3 605,119 602.1,119 602.1,104.3 596.6,104.3 596.6,101.6 610.5,101.6 	"/>
	<path class="st3" d="M621.5,101.6h-2.7l-7.5,17.4h3.1l1.8-4.2h8.1l1.8,4.2h3.1C629.1,118.9,621.5,101.6,621.5,101.6z M617.1,112.2
		l3-7l3,7H617.1L617.1,112.2z"/>
	<polygon class="st3" points="644.5,116.2 644.5,118.9 632.9,118.9 632.9,101.6 635.8,101.6 635.8,116.2 	"/>
</g>
<path class="st2" d="M4.1,55c6-31.1,33.4-54.6,66.2-54.6c15.6,0,29.9,5.3,41.3,14.1c-1.4,0.6-2.8,1.3-4.2,1.9
	c-10.1,4.6-18.3,12-26.4,19.3c-9.2,8.2-19.1,15.1-30.9,19C35.2,59.8,24.4,59.4,4.1,55z"/>
<path class="st1" d="M36.5,114.2c-3.9,2.4-7.5,4.2-9.6,5.2C12.2,107.1,2.9,88.6,2.9,67.9c0-0.9,0-1.8,0.1-2.6c3,0.5,6.5,1.2,8.8,1.6
	c26.1,5,49.9-2.6,69.8-19.7c4.7-4,9.7-7.7,14.1-12c9-8.8,18.8-13.3,22.5-14.8c8.7,8.7,15,19.8,17.9,32.1c-3.6,0.5-7.6,1-10.8,1.5
	c-10.8,1.5-21.3,4.1-30.3,10.4c-4.5,3.2-8.4,7.4-12.3,11.4C68.1,90.2,54,103.4,36.5,114.2z"/>
<path class="st0" d="M137.8,67.9c0,19.9-8.6,37.7-22.2,50l0,0c-2.8,1-5.6,1.2-8.6,0.5c-1.6-0.4-15.5-4.5-17.6-5
	c-4.1-1-6.3-2.2-11,0.5c-8.2,5.3-11.1,7.5-21.8,15.2c-1.9,1.3-3.6,2.4-5.3,3.6c-5.4-1.6-10.5-3.8-15.2-6.6
	c9.2-4.2,20.1-12.3,27.1-18.1c10.9-9,19.9-17.8,30.5-29.8c7-7.6,15.9-11.1,25.7-13.4c7.9-1.8,14.5-2.7,18.2-3
	C137.7,63.8,137.8,65.8,137.8,67.9z"/>
</svg>
