<svg xmlns="http://www.w3.org/2000/svg" version="1.1" xmlns:xlink="http://www.w3.org/1999/xlink" width="512" height="512" x="0" y="0" viewBox="0 0 216.975 216.975" style="enable-background:new 0 0 512 512" xml:space="preserve" class=""><g><path d="M182.442 0H34.53C15.49 0 0 15.491 0 34.531v147.913c0 19.04 15.49 34.53 34.53 34.53h147.912c19.041 0 34.532-15.49 34.532-34.53V34.531C216.975 15.491 201.483 0 182.442 0zm-46.711 48.122C135.731 29.858 150.59 15 168.852 15c18.264 0 33.122 14.858 33.122 33.122 0 12.021-18.405 41.336-33.122 61.603-14.715-20.267-33.121-49.582-33.121-61.603zM15 34.531C15 23.762 23.761 15 34.53 15h99.463c-8.208 8.635-13.262 20.296-13.262 33.122 0 7.455 3.886 17.633 9.306 28.209l-26.846 26.846-.008.007-.007.008-86.695 86.695A19.42 19.42 0 0 1 15 182.445V34.531zm19.53 167.444c-2.635 0-5.146-.531-7.442-1.481l81.399-81.398 81.398 81.398a19.42 19.42 0 0 1-7.443 1.481H34.53zm167.445-19.531c0 2.635-.531 5.146-1.481 7.442l-81.398-81.399 18.555-18.554c10.69 17.785 22.918 33.86 25.262 36.903a7.5 7.5 0 0 0 11.882 0c2.485-3.227 16.085-21.106 27.181-40.141v95.749z" fill="#000000" opacity="1" data-original="#000000" class=""></path><path d="M63.964 98.25c20.009 0 36.287-16.278 36.287-36.287a7.5 7.5 0 0 0-7.5-7.5H63.964a7.5 7.5 0 0 0-7.5 7.5 7.5 7.5 0 0 0 7.5 7.5h19.923C80.848 77.511 73.063 83.25 63.964 83.25c-11.737 0-21.286-9.549-21.286-21.287 0-11.737 9.549-21.286 21.286-21.286 5.684 0 11.03 2.214 15.052 6.234a7.5 7.5 0 0 0 10.605-10.608c-6.854-6.852-15.967-10.625-25.657-10.625-20.008 0-36.286 16.278-36.286 36.286 0 20.008 16.278 36.286 36.286 36.286z" fill="#000000" opacity="1" data-original="#000000" class=""></path></g></svg>