<svg xmlns="http://www.w3.org/2000/svg" version="1.1" xmlns:xlink="http://www.w3.org/1999/xlink" width="512" height="512" x="0" y="0" viewBox="0 0 32 32" style="enable-background:new 0 0 512 512" xml:space="preserve" class=""><g><path d="M22.56 30a5.16 5.16 0 0 1-2-.41A34.53 34.53 0 0 1 2.4 11.42a5 5 0 0 1 1.06-5.51l3-3a3 3 0 0 1 4.24 0l3.53 3.53a3 3 0 0 1 0 4.24l-1.63 1.65a12.54 12.54 0 0 0 7.07 7.07l1.68-1.67a3 3 0 0 1 4.24 0l3.53 3.53a3 3 0 0 1 0 4.24l-3 3a5 5 0 0 1-3.56 1.5zM8.62 4a1 1 0 0 0-.71.29l-3 3a3 3 0 0 0-.64 3.31 32.47 32.47 0 0 0 17.1 17.16 3 3 0 0 0 3.31-.64l3-3a1 1 0 0 0 0-1.42l-3.54-3.53a1 1 0 0 0-1.41 0l-2.12 2.12a1 1 0 0 1-1 .24 14.42 14.42 0 0 1-9.12-9.12 1 1 0 0 1 .24-1l2.12-2.12a1 1 0 0 0 .29-.71 1 1 0 0 0-.29-.7L9.33 4.29A1 1 0 0 0 8.62 4z" fill="#000000" opacity="1" data-original="#000000"></path></g></svg>